<svg xmlns="http://www.w3.org/2000/svg" width="34.373" height="37.5" viewBox="0 0 34.373 37.5">
  <g id="footericon" transform="translate(-35.77 -3406.75)">
    <g id="Path_10" data-name="Path 10" transform="translate(35.77 3406.75)" fill="#fff">
      <path d="M 28.57352828979492 9 L 0.5000003576278687 9 L 0.5000003576278687 0.5 L 33.50457763671875 0.5 L 28.57352828979492 9 Z" stroke="none"/>
      <path d="M 1 1 L 1 8.5 L 28.28554725646973 8.5 L 32.63647079467773 1 L 1 1 M 0 0 L 34.3726806640625 0 L 28.86151123046875 9.5 L 0 9.5 L 0 0 Z" stroke="none" fill="#fff"/>
    </g>
    <g id="Path_11" data-name="Path 11" transform="translate(35.77 3420.75)" fill="#fff">
      <path d="M 28.57352828979492 9 L 0.5000003576278687 9 L 0.5000003576278687 0.5 L 33.50457763671875 0.5 L 28.57352828979492 9 Z" stroke="none"/>
      <path d="M 1 1 L 1 8.5 L 28.28554725646973 8.5 L 32.63647079467773 1 L 1 1 M 0 0 L 34.3726806640625 0 L 28.86151123046875 9.5 L 0 9.5 L 0 0 Z" stroke="none" fill="#fff"/>
    </g>
    <g id="Path_12" data-name="Path 12" transform="translate(35.77 3434.75)" fill="#fff">
      <path d="M 28.57352828979492 9 L 0.5000003576278687 9 L 0.5000003576278687 0.5 L 33.50457763671875 0.5 L 28.57352828979492 9 Z" stroke="none"/>
      <path d="M 1 1 L 1 8.5 L 28.28554725646973 8.5 L 32.63647079467773 1 L 1 1 M 0 0 L 34.3726806640625 0 L 28.86151123046875 9.5 L 0 9.5 L 0 0 Z" stroke="none" fill="#fff"/>
    </g>
  </g>
</svg>
